<svg width="12" height="13" viewBox="0 0 12 13" fill="none" xmlns="http://www.w3.org/2000/svg">
<path fill-rule="evenodd" clip-rule="evenodd" d="M5.98378 0.777659C6.08934 0.964958 6.07503 1.19679 5.94723 1.36969C5.41961 2.08349 5.16572 2.96297 5.23173 3.84815C5.29774 4.73333 5.67927 5.56542 6.30692 6.19308C6.93458 6.82073 7.76667 7.20226 8.65185 7.26827C9.53703 7.33428 10.4165 7.08039 11.1303 6.55277C11.3032 6.42498 11.535 6.41066 11.7223 6.51622C11.9096 6.62178 12.0175 6.82751 11.9977 7.0416C11.8926 8.17859 11.4659 9.26215 10.7675 10.1655C10.069 11.0688 9.1278 11.7545 8.05388 12.1425C6.97995 12.5304 5.81775 12.6044 4.70328 12.3559C3.58881 12.1074 2.56816 11.5466 1.76076 10.7392C0.953353 9.93184 0.392594 8.91119 0.144093 7.79672C-0.104407 6.68225 -0.030371 5.52005 0.35754 4.44613C0.74545 3.3722 1.43119 2.43095 2.33452 1.73253C3.23785 1.03411 4.32141 0.607396 5.4584 0.502323C5.67249 0.482539 5.87822 0.590359 5.98378 0.777659ZM4.46305 1.81774C3.93806 1.9918 3.44359 2.25398 3.00179 2.59557C2.26238 3.16725 1.70108 3.93769 1.38357 4.81673C1.06605 5.69578 1.00545 6.64707 1.20885 7.55931C1.41226 8.47154 1.87126 9.30697 2.53214 9.96786C3.19303 10.6287 4.02847 11.0877 4.9407 11.2911C5.85293 11.4946 6.80422 11.434 7.68327 11.1164C8.56231 10.7989 9.33275 10.2376 9.90443 9.49821C10.246 9.05641 10.5082 8.56195 10.6823 8.03695C10.0162 8.29873 9.29495 8.41017 8.57073 8.35616C7.42498 8.27072 6.34795 7.77688 5.53553 6.96447C4.72312 6.15205 4.22928 5.07503 4.14384 3.92928C4.08983 3.20505 4.20127 2.48377 4.46305 1.81774Z" fill="#000000"/>
</svg>
