<svg width="14" height="15" viewBox="0 0 14 15" fill="none" xmlns="http://www.w3.org/2000/svg">
<path d="M7.58328 1.08334C7.58328 0.761169 7.32211 0.5 6.99994 0.5C6.67777 0.5 6.4166 0.761169 6.4166 1.08334L6.41661 2.25001C6.41661 2.57218 6.67777 2.83335 6.99994 2.83335C7.32211 2.83335 7.58328 2.57218 7.58328 2.25001V1.08334Z" fill="#000000"/>
<path d="M2.87401 2.54904C2.6462 2.32124 2.27685 2.32124 2.04905 2.54904C1.82124 2.77685 1.82124 3.1462 2.04905 3.37401L2.87739 4.20235C3.10519 4.43016 3.47454 4.43016 3.70235 4.20235C3.93016 3.97454 3.93016 3.60519 3.70235 3.37738L2.87401 2.54904Z" fill="#000000"/>
<path d="M11.9507 3.37401C12.1785 3.1462 12.1785 2.77685 11.9507 2.54904C11.7229 2.32124 11.3535 2.32124 11.1257 2.54904L10.2974 3.37738C10.0695 3.60519 10.0695 3.97454 10.2974 4.20235C10.5252 4.43016 10.8945 4.43016 11.1223 4.20235L11.9507 3.37401Z" fill="#000000"/>
<path d="M0.583338 6.9166C0.26117 6.9166 -1.40824e-08 7.17777 0 7.49994C1.40824e-08 7.82211 0.26117 8.08328 0.583338 8.08328L1.75001 8.08328C2.07218 8.08328 2.33335 7.82211 2.33335 7.49994C2.33335 7.17777 2.07218 6.9166 1.75001 6.9166L0.583338 6.9166Z" fill="#000000"/>
<path d="M12.25 6.9166C11.9278 6.9166 11.6666 7.17777 11.6666 7.49994C11.6666 7.82211 11.9278 8.08328 12.25 8.08328L13.4167 8.08328C13.7388 8.08328 14 7.82211 14 7.49994C14 7.17777 13.7388 6.9166 13.4167 6.9166L12.25 6.9166Z" fill="#000000"/>
<path d="M3.70235 11.6223C3.93016 11.3945 3.93016 11.0252 3.70235 10.7974C3.47454 10.5695 3.10519 10.5695 2.87739 10.7974L2.04905 11.6257C1.82124 11.8535 1.82124 12.2228 2.04905 12.4507C2.27685 12.6785 2.6462 12.6785 2.87401 12.4507L3.70235 11.6223Z" fill="#000000"/>
<path d="M11.1223 10.7974C10.8945 10.5695 10.5252 10.5695 10.2974 10.7974C10.0695 11.0252 10.0695 11.3945 10.2974 11.6223L11.1257 12.4507C11.3535 12.6785 11.7229 12.6785 11.9507 12.4507C12.1785 12.2228 12.1785 11.8535 11.9507 11.6257L11.1223 10.7974Z" fill="#000000"/>
<path d="M7.58328 12.75C7.58328 12.4278 7.32211 12.1666 6.99994 12.1666C6.67777 12.1666 6.4166 12.4278 6.4166 12.75L6.41661 13.9167C6.41661 14.2388 6.67777 14.5 6.99994 14.5C7.32211 14.5 7.58328 14.2388 7.58328 13.9167L7.58328 12.75Z" fill="#000000"/>
<path fill-rule="evenodd" clip-rule="evenodd" d="M10.7699 7.49994C10.7699 9.58163 9.08237 11.2692 7.00068 11.2692C4.91899 11.2692 3.23145 9.58163 3.23145 7.49994C3.23145 5.41825 4.91899 3.73071 7.00068 3.73071C9.08237 3.73071 10.7699 5.41825 10.7699 7.49994ZM9.76991 7.49994C9.76991 9.02935 8.53008 10.2692 7.00068 10.2692C5.47127 10.2692 4.23145 9.02935 4.23145 7.49994C4.23145 5.97054 5.47127 4.73071 7.00068 4.73071C8.53008 4.73071 9.76991 5.97054 9.76991 7.49994Z" fill="#000000"/>
</svg>
